Coordinates
version=1
nRows=35
nColumns=38
inDegrees=no

Units are S.I. units (second, meters, Newtons, ...)
If the header above contains a line with 'inDegrees', this indicates whether rotational values are in degrees (yes) or radians (no).

endheader
time	pelvis_tilt	pelvis_list	pelvis_rotation	pelvis_tx	pelvis_ty	pelvis_tz	hip_flexion_r	hip_adduction_r	hip_rotation_r	knee_angle_r	ankle_angle_r	subtalar_angle_r	mtp_angle_r	hip_flexion_l	hip_adduction_l	hip_rotation_l	knee_angle_l	ankle_angle_l	subtalar_angle_l	mtp_angle_l	lumbar_extension	lumbar_bending	lumbar_rotation	arm_flex_r	arm_add_r	arm_rot_r	elbow_flex_r	pro_sup_r	wrist_flex_r	wrist_dev_r	arm_flex_l	arm_add_l	arm_rot_l	elbow_flex_l	pro_sup_l	wrist_flex_l	wrist_dev_l
4.12	-0.116088	-0.132502	-0.0745131	1.14202	0.937539	-0.408004	0.462577	0.14485	-0.270269	-0.893153	0.618116	0.478849	0	0.343754	-0.248333	-0.171759	-2.03965	0.297702	0.10644	0	-0.252014	0.217365	0.173931	-0.487435	-0.465776	-0.334219	2.01326	1.59757	0	0	-0.526739	-0.235313	-0.0506832	1.64367	1.69015	0	0
4.13	-0.121127	-0.117376	-0.0720707	1.14161	0.939775	-0.407743	0.398331	0.133413	-0.251285	-0.872458	0.649394	0.490118	0	0.427026	-0.234789	-0.160919	-2.04032	0.329748	0.0898474	0	-0.240786	0.198288	0.19664	-0.447297	-0.462866	-0.333995	2.04851	1.60561	0	0	-0.572136	-0.246712	-0.0565804	1.66134	1.66548	0	0
4.14	-0.128008	-0.0989978	-0.068918	1.14219	0.94316	-0.407609	0.326922	0.117823	-0.237436	-0.831683	0.659322	0.501558	0	0.507359	-0.21715	-0.154798	-2.0237	0.357205	0.0679554	0	-0.224564	0.175599	0.217036	-0.413261	-0.457286	-0.331319	2.09238	1.61548	0	0	-0.623461	-0.259911	-0.0623145	1.69093	1.63531	0	0
4.15	-0.136368	-0.078313	-0.0654412	1.1437	0.947516	-0.407612	0.250726	0.0986749	-0.229252	-0.774707	0.645151	0.511029	0	0.58263	-0.196777	-0.153837	-1.99077	0.380256	0.0450173	0	-0.204243	0.150287	0.235026	-0.384656	-0.451062	-0.324478	2.14281	1.62656	0	0	-0.680021	-0.272462	-0.0701186	1.72958	1.60354	0	0
4.16	-0.145686	-0.0563502	-0.0619537	1.14605	0.95264	-0.407732	0.172121	0.0769817	-0.226607	-0.705948	0.606217	0.516755	0	0.651007	-0.175025	-0.157961	-1.94281	0.399247	0.0255448	0	-0.181012	0.123348	0.250529	-0.360361	-0.446031	-0.311985	2.19723	1.63811	0	0	-0.740745	-0.28198	-0.0821438	1.77421	1.57399	0	0
4.17	-0.15536	-0.0341004	-0.0586702	1.14909	0.958304	-0.407919	0.0934158	0.0539697	-0.228715	-0.630255	0.543945	0.517638	0	0.711069	-0.153075	-0.166736	-1.8812	0.414651	0.0134666	0	-0.156197	0.0956803	0.263478	-0.339086	-0.443611	-0.292885	2.25294	1.64934	0	0	-0.80425	-0.286505	-0.100104	1.82195	1.54978	0	0
4.18	-0.164792	-0.0124434	-0.0557116	1.15263	0.964269	-0.408106	0.0167959	0.0308974	-0.234156	-0.552785	0.461668	0.513468	0	0.76184	-0.131842	-0.17956	-1.80725	0.427053	0.0115215	0	-0.131122	0.0680387	0.273856	-0.319667	-0.444678	-0.266973	2.30737	1.65933	0	0	-0.868892	-0.284786	-0.124996	1.87038	1.53296	0	0
4.19	-0.173444	0.00787715	-0.0531199	1.15646	0.970292	-0.408221	-0.0557691	0.00893439	-0.240984	-0.478798	0.364286	0.504974	0	0.802755	-0.111958	-0.195865	-1.722	0.437214	0.0210618	0	-0.107006	0.0410633	0.28174	-0.301309	-0.449535	-0.234923	2.35835	1.6672	0	0	-0.932795	-0.276447	-0.156953	1.91763	1.52438	0	0
4.2	-0.180883	0.0262481	-0.0508706	1.16037	0.976146	-0.4082	-0.122629	-0.010885	-0.24687	-0.413345	0.257819	0.493617	0	0.833569	-0.0937756	-0.215225	-1.62617	0.44604	0.0420716	0	-0.0848977	0.0153398	0.287339	-0.283767	-0.457955	-0.198286	2.40411	1.67217	0	0	-0.993883	-0.262027	-0.195232	1.96237	1.52377	0	0
4.21	-0.186804	0.0421705	-0.0488815	1.16416	0.981637	-0.408006	-0.182516	-0.0276857	-0.249371	-0.360969	0.149018	0.48133	0	0.854264	-0.0773651	-0.237361	-1.52011	0.454416	0.0733208	0	-0.0656338	-0.00853314	0.291003	-0.267415	-0.46927	-0.159387	2.44334	1.6737	0	0	-1.04994	-0.242882	-0.238336	2.0037	1.52993	0	0
4.22	-0.19104	0.0552418	-0.0470219	1.16763	0.986612	-0.407641	-0.234545	-0.040743	-0.246209	-0.325429	0.0448999	0.469985	0	0.864962	-0.0625587	-0.26208	-1.4039	0.463012	0.112828	0	-0.0498153	-0.0298964	0.293214	-0.253222	-0.482475	-0.121095	2.47514	1.67161	0	0	-1.09872	-0.220994	-0.284216	2.04104	1.5411	0	0
4.23	-0.193552	0.0651497	-0.0451173	1.17064	0.99097	-0.407143	-0.278153	-0.0495262	-0.235791	-0.309549	-0.0478797	0.461078	0	0.865888	-0.0489525	-0.289057	-1.27758	0.471976	0.158036	0	-0.0378089	-0.0480281	0.294542	-0.242603	-0.496351	-0.0865025	2.4989	1.6661	0	0	-1.13806	-0.19871	-0.330512	2.07397	1.55527	0	0
4.24	-0.194387	0.0716859	-0.0429548	1.17309	0.994657	-0.406583	-0.313027	-0.0537664	-0.217721	-0.315117	-0.123898	0.455395	0	0.857369	-0.0359486	-0.317624	-1.14145	0.480691	0.206013	0	-0.0297721	-0.0622134	0.295534	-0.237151	-0.509593	-0.0585042	2.51422	1.65769	0	0	-1.16612	-0.17841	-0.374853	2.10222	1.57048	0	0
4.25	-0.193627	0.0747942	-0.0402911	1.17493	0.997642	-0.406044	-0.33907	-0.0535554	-0.193156	-0.342876	-0.179866	0.452792	0	0.839892	-0.0228259	-0.346606	-0.996542	0.487678	0.253447	0	-0.0257032	-0.0719169	0.296514	-0.238215	-0.520957	-0.0392989	2.52084	1.64709	0	0	-1.1817	-0.162099	-0.4152	2.12571	1.58511	0	0
4.26	-0.191371	0.074618	-0.0368953	1.17615	0.999898	-0.405606	-0.356354	-0.049414	-0.164693	-0.392542	-0.215111	0.452081	0	0.814219	-0.00889637	-0.374353	-0.845014	0.49073	0.296774	0	-0.0254483	-0.0769135	0.297522	-0.246595	-0.529367	-0.0300714	2.51851	1.63505	0	0	-1.18439	-0.151165	-0.450051	2.14455	1.59798	0	0
4.27	-0.187728	0.0715296	-0.0326149	1.1768	1.00139	-0.40533	-0.36511	-0.0423038	-0.135809	-0.46286	-0.231438	0.451165	0	0.781521	0.00625633	-0.399045	-0.690548	0.487286	0.332619	0	-0.0287013	-0.0773694	0.298347	-0.262366	-0.533997	-0.030879	2.50707	1.62228	0	0	-1.17458	-0.146289	-0.478521	2.15905	1.6084	0	0
4.28	-0.182811	0.0661253	-0.0274358	1.17694	1.00208	-0.405252	-0.365747	-0.0335645	-0.110122	-0.55171	-0.232387	0.447553	0	0.7435	0.0225636	-0.419086	-0.538565	0.474994	0.358233	0	-0.0350351	-0.073857	0.298606	-0.284811	-0.534328	-0.0407319	2.48633	1.60942	0	0	-1.15344	-0.147479	-0.500326	2.16971	1.61606	0	0
4.29	-0.176716	0.0591704	-0.0215121	1.17666	1.00187	-0.405376	-0.358888	-0.0247508	-0.0906535	-0.656262	-0.222217	0.438966	0	0.702438	0.0393103	-0.433588	-0.396255	0.452412	0.372154	0	-0.0439825	-0.0673034	0.297821	-0.312464	-0.530174	-0.0578216	2.45618	1.59713	0	0	-1.12271	-0.154185	-0.515707	2.17721	1.62097	0	0
4.3	-0.169485	0.0515042	-0.0151604	1.17602	1.00071	-0.405664	-0.345375	-0.0173727	-0.0791722	-0.77317	-0.20493	0.42376	0	0.661134	0.0550356	-0.442991	-0.272299	0.419652	0.375398	0	-0.0551445	-0.0588779	0.295469	-0.343247	-0.521657	-0.0798379	2.41656	1.58614	0	0	-1.08448	-0.165477	-0.525312	2.18234	1.62337	0	0
4.31	-0.161105	0.0439397	-0.00880705	1.17508	0.998493	-0.406047	-0.326166	-0.0126564	-0.0759614	-0.898865	-0.18361	0.401264	0	0.622704	0.0676778	-0.449267	-0.176121	0.37872	0.371887	0	-0.0682621	-0.0498487	0.291027	-0.374706	-0.509147	-0.104321	2.36753	1.57723	0	0	-1.04092	-0.180249	-0.530052	2.18591	1.62358	0	0
4.32	-0.151565	0.037188	-0.0029135	1.17385	0.995187	-0.406433	-0.30211	-0.0113941	-0.0799578	-1.02987	-0.160147	0.371999	0	0.590225	0.0749778	-0.455558	-0.116557	0.33343	0.367882	0	-0.0832021	-0.0414225	0.284048	-0.40437	-0.493163	-0.129026	2.30934	1.57123	0	0	-0.993995	-0.197471	-0.530906	2.18861	1.62206	0	0
4.33	-0.140931	0.0318259	0.00209998	1.17231	0.990793	-0.40673	-0.273711	-0.0139009	-0.0891221	-1.16304	-0.135262	0.337669	0	0.56611	0.0751113	-0.46518	-0.0999168	0.288762	0.370327	0	-0.0998792	-0.0346179	0.274249	-0.430135	-0.474255	-0.152218	2.2426	1.56883	0	0	-0.945191	-0.216399	-0.528739	2.19088	1.61927	0	0
4.34	-0.129399	0.0283009	0.00592325	1.17041	0.985378	-0.406858	-0.240981	-0.0200575	-0.100919	-1.29573	-0.108768	0.300909	0	0.551446	0.0673226	-0.480003	-0.128128	0.250131	0.384166	0	-0.118177	-0.030217	0.261488	-0.450512	-0.452957	-0.172744	2.16834	1.57027	0	0	-0.895434	-0.236609	-0.52425	2.19282	1.61576	0	0
4.35	-0.117311	0.0269324	0.00840243	1.16808	0.979085	-0.40677	-0.203455	-0.0293901	-0.112796	-1.42569	-0.0799518	0.264823	0	0.545577	0.0522827	-0.499588	-0.197738	0.222772	0.410846	0	-0.13788	-0.0287413	0.245706	-0.464759	-0.429781	-0.189969	2.08813	1.57508	0	0	-0.845152	-0.257916	-0.518002	2.1943	1.61208	0	0
4.36	-0.10512	0.0278813	0.00955953	1.16527	0.972134	-0.406449	-0.160326	-0.041146	-0.122604	-1.55096	-0.0479894	0.232422	0	0.546093	0.0320663	-0.521205	-0.300082	0.211062	0.448058	0	-0.158628	-0.0304107	0.226868	-0.472925	-0.405237	-0.203623	2.00419	1.58209	0	0	-0.794412	-0.280229	-0.51048	2.19504	1.60872	0	0
4.37	-0.0933423	0.0310729	0.00957512	1.16196	0.964813	-0.40591	-0.110698	-0.054331	-0.128877	-1.66963	-0.0123028	0.206013	0	0.549294	0.00966709	-0.54077	-0.422761	0.217809	0.490803	0	-0.179885	-0.0350686	0.204949	-0.475832	-0.37988	-0.213657	1.91935	1.58963	0	0	-0.743124	-0.303387	-0.502149	2.19473	1.60609	0	0
4.38	-0.0824912	0.0360845	0.00872209	1.15822	0.957469	-0.405192	-0.0538504	-0.0676941	-0.130941	-1.77962	0.0271719	0.18666	0	0.55111	-0.0119621	-0.554736	-0.55238	0.24398	0.534111	0	-0.200916	-0.042081	0.179985	-0.475003	-0.354354	-0.220136	1.83702	1.59597	0	0	-0.691259	-0.327015	-0.493482	2.1932	1.60438	0	0
4.39	-0.0730478	0.0421065	0.0072773	1.15416	0.950468	-0.404346	0.0105399	-0.0797912	-0.128899	-1.87868	0.0698455	0.173938	0	0.547753	-0.0305855	-0.561049	-0.676515	0.288153	0.574246	0	-0.22079	-0.0503261	0.152146	-0.47252	-0.32942	-0.223192	1.761	1.59986	0	0	-0.639032	-0.350421	-0.484944	2.1906	1.60362	0	0
4.4	-0.0654506	0.0479988	0.00543782	1.14999	0.944173	-0.403427	0.0822731	-0.0891214	-0.123516	-1.9644	0.114496	0.166068	0	0.536142	-0.0450347	-0.559419	-0.784954	0.346257	0.609026	0	-0.238411	-0.0582979	0.121804	-0.470793	-0.305931	-0.223045	1.69517	1.60093	0	0	-0.587009	-0.372587	-0.476955	2.18742	1.60371	0	0
4.41	-0.0600993	0.0524266	0.00327485	1.14597	0.938901	-0.402487	0.160594	-0.0942922	-0.116038	-2.03446	0.159444	0.160399	0	0.514191	-0.0552735	-0.551108	-0.870403	0.412094	0.637718	0	-0.252585	-0.0642996	0.0895658	-0.47227	-0.284753	-0.22006	1.64304	1.59981	0	0	-0.536113	-0.39226	-0.469803	2.18457	1.60448	0	0
4.42	-0.0573479	0.0540429	0.000744342	1.14235	0.934898	-0.401568	0.24422	-0.0941768	-0.10797	-2.08682	0.202829	0.15408	0	0.480922	-0.0621843	-0.538379	-0.928634	0.478302	0.660539	0	-0.262145	-0.0666781	0.0562312	-0.479136	-0.266631	-0.214807	1.60728	1.59801	0	0	-0.487519	-0.408136	-0.463549	2.18327	1.60579	0	0
4.43	-0.0574775	0.0516801	-0.00225589	1.1394	0.932323	-0.400695	0.331418	-0.0880583	-0.10087	-2.11994	0.242946	0.144788	0	0.436418	-0.067218	-0.523917	-0.958228	0.537519	0.678153	0	-0.266096	-0.064045	0.0227191	-0.493071	-0.25205	-0.208084	1.58936	1.59742	0	0	-0.44246	-0.419105	-0.45791	2.18487	1.60752	0	0
4.44	-0.0606612	0.0445238	-0.00581405	1.13732	0.931241	-0.399884	0.420126	-0.07576	-0.0961711	-2.13293	0.27858	0.13136	0	0.381651	-0.0719882	-0.510336	-0.960075	0.583361	0.691244	0	-0.263762	-0.0554473	-0.0100316	-0.515119	-0.241124	-0.200875	1.58931	1.59974	0	0	-0.401976	-0.424476	-0.452178	2.19058	1.60962	0	0
4.45	-0.0669375	0.0322396	-0.00995362	1.13627	0.931629	-0.399149	0.508107	-0.057707	-0.0950065	-2.12562	0.309185	0.114068	0	0.318261	-0.0778628	-0.499737	-0.936742	0.610953	0.700098	0	-0.254879	-0.0404669	-0.0411391	-0.545673	-0.233547	-0.194268	1.6058	1.60597	0	0	-0.366681	-0.424128	-0.445207	2.20121	1.61209	0	0
4.46	-0.0762095	0.0150276	-0.0146296	1.13633	0.933384	-0.398507	0.593148	-0.0348847	-0.0980725	-2.0985	0.334861	0.0945222	0	0.248376	-0.0856567	-0.493357	-0.89192	0.617159	0.704303	0	-0.239628	-0.0192436	-0.0698137	-0.584559	-0.228609	-0.189341	1.63647	1.61611	0	0	-0.336615	-0.418549	-0.435509	2.21699	1.61495	0	0
